<svg id="Слой_1" data-name="Слой 1" xmlns="http://www.w3.org/2000/svg" viewBox="0 0 375.91 443.64"><defs><style>.cls-1,.cls-2{fill:none;stroke-miterlimit:10;}.cls-1{stroke:#fff;}.cls-2{stroke:#f39200;}</style></defs><title>map</title><path class="cls-1" d="M102.64,130.21,98,143l11.75,15.32-5.88,14.81,11,11.23-8.42,18.38-21.7,15.83-22.47,26L48,262l-7.15,2.55-3.06-4.08-7.66,4.08-4.09,23,2.05,6.13L19.91,313v24l-3.57,9.7,6.13,10.73L49,374.3l10.72,12.25L67.91,410,81.7,455.49,95,458l26-17.36,12.26-.51,19.91-5.11,6.13-9.7,18.38,3.07,19.92,11.23,15.83,12.25L226.21,458h26l2.55-19.4,11.23-9.7,5.11-36.77,28.59-5.11s6.64,5.11,10.22,4.09,16.34-5.62,16.34-5.62l17.36,3.07L361,371.23l12.26,4.09,3.57-10.72,14.3-12.26-2-8.68-23-12.26,3.57-6.63V314l6.13-12.25-10.72-15.32,7.15-16.85-6.64-19.92-14.81,1.53-4.6-9.7-4.08-12.25-15.83-8.17L315.57,193l-19.91-26.81,8.68-9.19-3.06-11.74,1-5.11-14.56-17.62-7.14,3.07-21.2-6.81L255,105.53l14-20.08-7.49-15.66L249.87,58.55l7.83-9.19-5.1-10.21H242L237.62,30l-8.51,6.13,7.83,8.51-19.75-.34-.68,12.93,21.79,9.53L244.77,79l-18.05-8.85-15.66-3.07L208,44.94l-2-26.56-8.17-2.72,3.4,28.25L188.26,55.49,190,75.91,201.19,94.3l-3.06,14,3.06,29.27,16.34-1.36,17.7-.68,14,20.42-5.1,14,17.7,12.26H243.4l-5.1-7.83,1.36-20.43L227.06,144l-16.68,4.09L208,159l4.09,16.34,3.4,6.47L208.34,190l-6.47,20.42-12.93,9.19-2.39,10.56-11.23-2.39-16.68-.34-5.45-7.49-5.1-6.12,12.25-2.39,8.51,9.88,8.85.34,18.39-41.88-.35-10.55,6.47-8.17-18-22.13,3.38-57.19L176.34,68.09,176,55.49l8.19-12.94-3.08-20.42-15-3.41-18.39-3.06L144,37.11l-3.74,19.4-12.94,14-7.15,3.06.34,10.56,8.85,6.8-3.06,10.56-6.81,19.06,11.91,8.85,9.88,12.26,5.44,12.25-5.78,7.49-14-5.1L116.43,143Z" transform="translate(-15.79 -14.94)"/><circle class="cls-2" cx="226.51" cy="216.13" r="4.6"/><circle class="cls-2" cx="226.51" cy="216.13" r="2.11"/><circle class="cls-2" cx="179.27" cy="244.06" r="4.6"/><circle class="cls-2" cx="179.27" cy="244.06" r="2.11"/><circle class="cls-2" cx="228.61" cy="255.98" r="4.6"/><circle class="cls-2" cx="228.61" cy="255.98" r="2.11"/><circle class="cls-2" cx="240.49" cy="267.96" r="4.6"/><circle class="cls-2" cx="240.49" cy="267.96" r="2.11"/><circle class="cls-2" cx="206.51" cy="267.96" r="4.6"/><circle class="cls-2" cx="206.51" cy="267.96" r="2.11"/><circle class="cls-2" cx="204.4" cy="317.94" r="4.6"/><circle class="cls-2" cx="204.4" cy="317.94" r="2.11"/><circle class="cls-2" cx="238.38" cy="327.13" r="4.6"/><circle class="cls-2" cx="238.38" cy="327.13" r="2.11"/><circle class="cls-2" cx="104.38" cy="348.23" r="4.6"/><circle class="cls-2" cx="104.38" cy="348.23" r="2.11"/><circle class="cls-2" cx="127.34" cy="354.94" r="4.6"/><circle class="cls-2" cx="127.34" cy="354.94" r="2.11"/><circle class="cls-2" cx="87.23" cy="383.81" r="4.6"/><circle class="cls-2" cx="87.23" cy="383.81" r="2.11"/><circle class="cls-2" cx="251.15" cy="357.04" r="4.6"/><circle class="cls-2" cx="251.15" cy="357.04" r="2.11"/><circle class="cls-2" cx="238.38" cy="359.15" r="4.6"/><circle class="cls-2" cx="238.38" cy="359.15" r="2.11"/><circle class="cls-2" cx="186.24" cy="396.66" r="4.6"/><circle class="cls-2" cx="186.24" cy="396.66" r="2.11"/><circle class="cls-2" cx="192.55" cy="385.92" r="4.6"/><circle class="cls-2" cx="192.55" cy="385.92" r="2.11"/><circle class="cls-2" cx="187.95" cy="366.57" r="4.6"/><circle class="cls-2" cx="187.95" cy="366.57" r="2.11"/><circle class="cls-2" cx="184.13" cy="377.93" r="4.6"/><circle class="cls-2" cx="184.13" cy="377.93" r="2.11"/></svg>